<svg width="169" height="171" viewBox="0 0 169 171" fill="none" xmlns="http://www.w3.org/2000/svg">
<path d="M84.7267 156.569C74.9062 156.551 65.704 154.639 57.12 150.832C48.536 147.025 41.0627 141.888 34.7 135.421C28.3374 128.954 23.2931 121.361 19.5672 112.643C15.8413 103.924 13.9871 94.5875 14.0045 84.6334C14.0302 69.9394 18.0589 56.6151 26.0905 44.6606C34.1222 32.7061 44.8629 23.9558 58.3127 18.4098C59.9505 17.8202 61.6461 17.6146 63.3995 17.7931C65.1528 17.9715 66.6132 18.5381 67.7806 19.4929C68.7145 20.3241 69.4443 21.4819 69.9701 22.9665C70.496 24.451 70.7545 26.3759 70.7457 28.7412C70.9631 38.1031 72.8181 47.0247 76.3106 55.506C79.8031 63.9873 84.817 71.5493 91.3524 78.192C97.8878 84.8347 105.361 89.9434 113.773 93.5178C122.184 97.0923 131.007 99.0038 140.243 99.2522C142.698 99.2565 144.568 99.4683 145.853 99.8877C147.139 100.307 148.19 100.989 149.006 101.934C149.94 103.12 150.552 104.662 150.843 106.559C151.135 108.455 150.984 110.173 150.392 111.713C144.991 125.331 136.32 136.218 124.381 144.373C112.442 152.529 99.2236 156.594 84.7267 156.569ZM84.7516 142.349C95.0397 142.367 104.572 139.776 113.35 134.578C122.127 129.379 129.038 122.222 134.081 113.106C124.028 112.14 114.504 109.548 105.51 105.327C96.5148 101.107 88.458 95.3743 81.3391 88.1285C74.2202 80.8828 68.5644 72.6964 64.3715 63.5692C60.1787 54.4421 57.682 44.7799 56.8815 34.5827C47.8705 39.6624 40.8155 46.6724 35.7165 55.6127C30.6176 64.5529 28.0567 74.2347 28.0338 84.658C28.0058 100.656 33.5072 114.264 44.538 125.484C55.5688 136.704 68.9733 142.326 84.7516 142.349ZM100.517 52.0786L89.3136 40.683C87.9132 39.2585 87.2146 37.5983 87.218 35.7023C87.2213 33.8063 87.9256 32.1485 89.3311 30.7289L100.574 19.3726C101.98 17.953 103.618 17.2449 105.488 17.2481C107.359 17.2514 108.994 17.9653 110.395 19.3897L121.598 30.7854C122.999 32.2099 123.697 33.8701 123.694 35.7661C123.691 37.6621 122.986 39.3199 121.581 40.7394L110.338 52.0958C108.932 53.5154 107.294 54.2235 105.424 54.2202C103.553 54.217 101.918 53.5031 100.517 52.0786ZM135.553 73.4701L131.352 69.1967C129.951 67.7722 129.253 66.112 129.256 64.216C129.259 62.32 129.964 60.6622 131.369 59.2427L135.585 54.984C136.991 53.5645 138.629 52.8563 140.499 52.8596C142.37 52.8629 144.005 53.5768 145.406 55.0012L149.607 59.2746C151.008 60.6991 151.706 62.3593 151.703 64.2553C151.7 66.1513 150.995 67.8091 149.59 69.2286L145.374 73.4873C143.968 74.9068 142.33 75.615 140.46 75.6117C138.589 75.6084 136.953 74.8945 135.553 73.4701Z" fill="#4C82FF"/>
</svg>
