<svg width="171" height="169" viewBox="0 0 171 169" fill="none" xmlns="http://www.w3.org/2000/svg">
<path d="M28.5 96.8229H14.25C12.2313 96.8229 10.5403 96.1469 9.17702 94.7949C7.81377 93.4429 7.12977 91.7717 7.12502 89.7812C7.12027 87.7908 7.80427 86.1196 9.17702 84.7676C10.5498 83.4156 12.2408 82.7396 14.25 82.7396H28.5C30.5188 82.7396 32.2121 83.4156 33.5801 84.7676C34.9481 86.1196 35.6298 87.7908 35.625 89.7812C35.6203 91.7717 34.9363 93.4453 33.573 94.802C32.2098 96.1586 30.5188 96.8323 28.5 96.8229ZM50.2313 54.925C48.925 56.216 47.2625 56.8614 45.2438 56.8614C43.225 56.8614 41.5625 56.216 40.2563 54.925L30.1031 44.8906C28.6781 43.4823 27.9656 41.8392 27.9656 39.9614C27.9656 38.0837 28.6781 36.4406 30.1031 35.0323C31.5281 33.7413 33.1907 33.0653 35.0907 33.0043C36.9907 32.9432 38.6532 33.6192 40.0782 35.0323L50.2313 45.0667C51.5375 46.3576 52.2215 47.9702 52.2833 49.9043C52.345 51.8384 51.661 53.512 50.2313 54.925ZM42.75 133.792C40.2563 133.792 38.1497 132.94 36.4302 131.236C34.7107 129.531 33.8485 127.449 33.8438 124.99C33.839 122.53 34.7012 120.445 36.4302 118.737C38.1592 117.028 40.2658 116.178 42.75 116.187C45.2343 116.197 47.3433 117.049 49.077 118.744C50.8108 120.438 51.6705 122.52 51.6563 124.99C51.642 127.459 50.7799 129.543 49.0699 131.243C47.3599 132.942 45.2533 133.792 42.75 133.792ZM85.5 68.6562C79.5625 68.6562 74.5157 70.7101 70.3594 74.8177C66.2032 78.9253 64.125 83.9132 64.125 89.7812C64.125 91.7764 63.441 93.45 62.073 94.802C60.705 96.154 59.014 96.8276 57 96.8229C54.986 96.8182 53.295 96.1422 51.927 94.7949C50.559 93.4476 49.875 91.7764 49.875 89.7812C49.875 80.0403 53.3497 71.7381 60.2989 64.8749C67.2482 58.0116 75.6485 54.5776 85.5 54.5729C95.3515 54.5682 103.754 58.0022 110.708 64.8749C117.662 71.7475 121.135 80.0497 121.125 89.7812C121.125 91.7764 120.441 93.45 119.073 94.802C117.705 96.154 116.014 96.8276 114 96.8229C111.986 96.8182 110.295 96.1422 108.927 94.7949C107.559 93.4476 106.875 91.7764 106.875 89.7812C106.875 83.9132 104.797 78.9253 100.641 74.8177C96.4844 70.7101 91.4375 68.6562 85.5 68.6562ZM64.125 161.958C61.6313 161.958 59.5223 161.106 57.798 159.402C56.0738 157.698 55.214 155.616 55.2188 153.156C55.2235 150.696 56.0857 148.612 57.8052 146.903C59.5247 145.194 61.6313 144.345 64.125 144.354C66.6188 144.364 68.7278 145.216 70.452 146.91C72.1763 148.605 73.036 150.687 73.0313 153.156C73.0265 155.626 72.1644 157.71 70.4449 159.409C68.7254 161.109 66.6188 161.958 64.125 161.958ZM85.5 133.792C83.0063 133.792 80.8973 132.94 79.173 131.236C77.4488 129.531 76.589 127.449 76.5938 124.99C76.5985 122.53 77.4607 120.445 79.1802 118.737C80.8997 117.028 83.0063 116.178 85.5 116.187C87.9938 116.197 90.1028 117.049 91.827 118.744C93.5513 120.438 94.411 122.52 94.4063 124.99C94.4015 127.459 93.5394 129.543 91.8199 131.243C90.1004 132.942 87.9938 133.792 85.5 133.792ZM85.5 40.4896C83.4813 40.4896 81.7903 39.8136 80.427 38.4616C79.0638 37.1096 78.3798 35.4383 78.375 33.4479V19.3646C78.375 17.3694 79.059 15.6982 80.427 14.3509C81.795 13.0036 83.486 12.3276 85.5 12.3229C87.514 12.3182 89.2074 12.9942 90.5802 14.3509C91.9529 15.7076 92.6345 17.3788 92.625 19.3646V33.4479C92.625 35.443 91.941 37.1166 90.573 38.4686C89.205 39.8206 87.514 40.4943 85.5 40.4896ZM106.875 161.958C104.381 161.958 102.272 161.106 100.548 159.402C98.8238 157.698 97.964 155.616 97.9688 153.156C97.9735 150.696 98.8357 148.612 100.555 146.903C102.275 145.194 104.381 144.345 106.875 144.354C109.369 144.364 111.478 145.216 113.202 146.91C114.926 148.605 115.786 150.687 115.781 153.156C115.777 155.626 114.914 157.71 113.195 159.409C111.475 161.109 109.369 161.958 106.875 161.958ZM120.769 54.925C119.344 53.5167 118.631 51.8736 118.631 49.9958C118.631 48.118 119.344 46.475 120.769 45.0667L130.922 35.0323C132.228 33.7413 133.862 33.0653 135.824 33.0043C137.786 32.9432 139.477 33.6192 140.897 35.0323C142.203 36.3232 142.856 37.9663 142.856 39.9614C142.856 41.9566 142.203 43.5996 140.897 44.8906L130.744 54.925C129.438 56.216 127.806 56.8614 125.849 56.8614C123.892 56.8614 122.199 56.216 120.769 54.925ZM128.25 133.792C125.756 133.792 123.647 132.94 121.923 131.236C120.199 129.531 119.339 127.449 119.344 124.99C119.349 122.53 120.211 120.445 121.93 118.737C123.65 117.028 125.756 116.178 128.25 116.187C130.744 116.197 132.853 117.049 134.577 118.744C136.301 120.438 137.161 122.52 137.156 124.99C137.152 127.459 136.289 129.543 134.57 131.243C132.85 132.942 130.744 133.792 128.25 133.792ZM142.5 96.8229C140.481 96.8229 138.79 96.1469 137.427 94.7949C136.064 93.4429 135.38 91.7717 135.375 89.7812C135.37 87.7908 136.054 86.1196 137.427 84.7676C138.8 83.4156 140.491 82.7396 142.5 82.7396H156.75C158.769 82.7396 160.462 83.4156 161.83 84.7676C163.198 86.1196 163.88 87.7908 163.875 89.7812C163.87 91.7717 163.186 93.4453 161.823 94.802C160.46 96.1586 158.769 96.8323 156.75 96.8229H142.5Z" fill="#4C82FF"/>
</svg>
