<svg width="18" height="30" viewBox="0 0 18 30" fill="none" xmlns="http://www.w3.org/2000/svg">
<path d="M6.80003 15L17.2 25.4C17.6889 25.8889 17.9334 26.5111 17.9334 27.2667C17.9334 28.0223 17.6889 28.6445 17.2 29.1334C16.7111 29.6223 16.0889 29.8667 15.3334 29.8667C14.5778 29.8667 13.9556 29.6223 13.4667 29.1334L1.20002 16.8667C0.666692 16.3334 0.400024 15.7111 0.400024 15C0.400024 14.2889 0.666692 13.6667 1.20002 13.1334L13.4667 0.866701C13.9556 0.377811 14.5778 0.133364 15.3334 0.133364C16.0889 0.133364 16.7111 0.377811 17.2 0.866701C17.6889 1.35559 17.9334 1.97781 17.9334 2.73336C17.9334 3.48892 17.6889 4.11115 17.2 4.60003L6.80003 15Z" fill="#4C82FF"/>
</svg>
